<svg width="40" height="40" viewBox="0 0 40 40" fill="none" xmlns="http://www.w3.org/2000/svg">
<path d="M27.1852 37.3884C27.1285 37.3879 27.0726 37.3745 27.0219 37.3492L20 34.1616L12.9847 37.3492C12.9261 37.383 12.8597 37.4008 12.792 37.4008C12.7244 37.4008 12.6579 37.383 12.5993 37.3492C12.5369 37.3102 12.4863 37.255 12.4529 37.1894C12.4195 37.1238 12.4047 37.0503 12.4099 36.9769V25.5395C12.4225 25.4401 12.4709 25.3487 12.5461 25.2825C12.6212 25.2162 12.718 25.1797 12.8181 25.1797C12.9183 25.1797 13.0151 25.2162 13.0902 25.2825C13.1654 25.3487 13.2138 25.4401 13.2264 25.5395V36.3433L19.8367 33.3451C19.8884 33.3193 19.9455 33.3058 20.0033 33.3058C20.0611 33.3058 20.1181 33.3193 20.1699 33.3451L26.7802 36.3433V25.5395C26.7928 25.4401 26.8412 25.3487 26.9164 25.2825C26.9915 25.2162 27.0883 25.1797 27.1884 25.1797C27.2886 25.1797 27.3853 25.2162 27.4605 25.2825C27.5357 25.3487 27.5841 25.4401 27.5967 25.5395V36.9769C27.5972 37.046 27.5801 37.114 27.547 37.1746C27.5138 37.2352 27.4657 37.2863 27.4072 37.3231C27.3417 37.3671 27.2641 37.3899 27.1852 37.3884Z" fill="#114A43"/>
<path d="M20 28.2437C17.464 28.2437 14.985 27.4917 12.8764 26.0827C10.7678 24.6738 9.12432 22.6713 8.15383 20.3283C7.18335 17.9854 6.92943 15.4072 7.42418 12.92C7.91892 10.4327 9.14012 8.148 10.9333 6.35479C12.7266 4.56157 15.0113 3.34037 17.4985 2.84562C19.9858 2.35088 22.5639 2.6048 24.9069 3.57528C27.2498 4.54576 29.2524 6.18922 30.6613 8.29782C32.0702 10.4064 32.8222 12.8855 32.8222 15.4215C32.8205 18.8216 31.469 22.082 29.0648 24.4862C26.6605 26.8905 23.4001 28.2419 20 28.2437ZM20 3.42227C17.6252 3.42227 15.3038 4.12656 13.3293 5.44606C11.3548 6.76555 9.81604 8.64097 8.90755 10.8351C7.99906 13.0292 7.76169 15.4435 8.22546 17.7726C8.68923 20.1016 9.83332 22.2409 11.513 23.9196C13.1927 25.5984 15.3325 26.7413 17.6618 27.2038C19.9911 27.6663 22.4053 27.4276 24.5989 26.5179C26.7926 25.6083 28.6672 24.0684 29.9856 22.0933C31.304 20.1181 32.007 17.7962 32.0057 15.4215C32.0023 12.239 30.7361 9.18799 28.4851 6.93827C26.2342 4.68855 23.1825 3.424 20 3.42227Z" fill="#114A43"/>
<path d="M20 34.1224C19.892 34.1207 19.789 34.0766 19.7132 33.9996C19.6375 33.9226 19.595 33.8189 19.595 33.7109V27.8322C19.6076 27.7328 19.656 27.6414 19.7312 27.5752C19.8064 27.509 19.9031 27.4724 20.0033 27.4724C20.1035 27.4724 20.2002 27.509 20.2754 27.5752C20.3505 27.6414 20.3989 27.7328 20.4115 27.8322V33.7109C20.4115 33.8201 20.3682 33.9247 20.291 34.0019C20.2138 34.0791 20.1092 34.1224 20 34.1224Z" fill="#114A43"/>
<path d="M20 24.3245C18.2391 24.3245 16.5178 23.8024 15.0537 22.8241C13.5896 21.8458 12.4485 20.4553 11.7747 18.8285C11.1008 17.2017 10.9245 15.4116 11.268 13.6846C11.6116 11.9576 12.4595 10.3712 13.7046 9.12608C14.9497 7.88096 16.5361 7.03303 18.2631 6.68951C19.9901 6.34598 21.7802 6.52229 23.407 7.19614C25.0339 7.86999 26.4243 9.01112 27.4026 10.4752C28.3809 11.9393 28.903 13.6606 28.903 15.4215C28.9013 17.7822 27.9628 20.0457 26.2935 21.715C24.6242 23.3842 22.3607 24.3228 20 24.3245ZM20 7.34146C18.4004 7.34146 16.8366 7.8159 15.5067 8.70475C14.1767 9.5936 13.1402 10.8569 12.5284 12.3349C11.9165 13.8129 11.7568 15.4392 12.0693 17.008C12.3819 18.5768 13.1527 20.0177 14.2843 21.1484C15.4158 22.279 16.8573 23.0487 18.4264 23.36C19.9955 23.6713 21.6216 23.5102 23.0991 22.8971C24.5766 22.2841 25.8391 21.2466 26.7269 19.9159C27.6147 18.5852 28.0878 17.0211 28.0865 15.4215C28.0831 13.2785 27.2298 11.2243 25.7138 9.70956C24.1979 8.19482 22.143 7.34319 20 7.34146Z" fill="#114A43"/>
</svg>
