<svg width="1920" height="961" viewBox="0 0 1920 961" fill="none" xmlns="http://www.w3.org/2000/svg">
<g clip-path="url(#clip0_2315_4)">
<mask id="mask0_2315_4" style="mask-type:luminance" maskUnits="userSpaceOnUse" x="0" y="0" width="1920" height="961">
<path d="M1920 0H0V961H1920V0Z" fill="white"/>
</mask>
<g mask="url(#mask0_2315_4)">
<mask id="mask1_2315_4" style="mask-type:luminance" maskUnits="userSpaceOnUse" x="0" y="0" width="1920" height="962">
<path d="M1920 0H0V961.004H1920V0Z" fill="white"/>
</mask>
<g mask="url(#mask1_2315_4)">
<path d="M1920 0H0V961.004H1920V0Z" fill="#283B51"/>
<path d="M143.913 -5.93359H16.7812C5.73555 -5.93359 -3.21875 3.02071 -3.21875 14.0664V135.884C-3.21875 146.93 5.73555 155.884 16.7812 155.884H143.913C154.959 155.884 163.913 146.93 163.913 135.884V14.0664C163.913 3.02071 154.959 -5.93359 143.913 -5.93359Z" fill="#14202E"/>
<path d="M315.046 -5.93359H187.914C176.868 -5.93359 167.914 3.02071 167.914 14.0664V135.884C167.914 146.93 176.868 155.884 187.914 155.884H315.046C326.092 155.884 335.046 146.93 335.046 135.884V14.0664C335.046 3.02071 326.092 -5.93359 315.046 -5.93359Z" fill="#14202E"/>
<path d="M486.179 -5.93359H359.047C348.001 -5.93359 339.047 3.02071 339.047 14.0664V135.884C339.047 146.93 348.001 155.884 359.047 155.884H486.179C497.225 155.884 506.179 146.93 506.179 135.884V14.0664C506.179 3.02071 497.225 -5.93359 486.179 -5.93359Z" fill="#14202E"/>
<path d="M657.312 -5.93359H530.18C519.134 -5.93359 510.18 3.02071 510.18 14.0664V135.884C510.18 146.93 519.134 155.884 530.18 155.884H657.312C668.358 155.884 677.312 146.93 677.312 135.884V14.0664C677.312 3.02071 668.358 -5.93359 657.312 -5.93359Z" fill="#14202E"/>
<path d="M828.444 -5.93359H701.312C690.266 -5.93359 681.312 3.02071 681.312 14.0664V135.884C681.312 146.93 690.266 155.884 701.312 155.884H828.444C839.49 155.884 848.444 146.93 848.444 135.884V14.0664C848.444 3.02071 839.49 -5.93359 828.444 -5.93359Z" fill="#14202E"/>
<path d="M999.57 -5.93359H872.438C861.392 -5.93359 852.438 3.02071 852.438 14.0664V135.884C852.438 146.93 861.392 155.884 872.438 155.884H999.57C1010.62 155.884 1019.57 146.93 1019.57 135.884V14.0664C1019.57 3.02071 1010.62 -5.93359 999.57 -5.93359Z" fill="#14202E"/>
<path d="M1170.7 -5.93359H1043.57C1032.52 -5.93359 1023.57 3.02071 1023.57 14.0664V135.884C1023.57 146.93 1032.52 155.884 1043.57 155.884H1170.7C1181.75 155.884 1190.7 146.93 1190.7 135.884V14.0664C1190.7 3.02071 1181.75 -5.93359 1170.7 -5.93359Z" fill="#14202E"/>
<path d="M1341.83 -5.93359H1214.7C1203.65 -5.93359 1194.7 3.02071 1194.7 14.0664V135.884C1194.7 146.93 1203.65 155.884 1214.7 155.884H1341.83C1352.88 155.884 1361.83 146.93 1361.83 135.884V14.0664C1361.83 3.02071 1352.88 -5.93359 1341.83 -5.93359Z" fill="#14202E"/>
<path d="M1512.97 -5.93359H1385.84C1374.79 -5.93359 1365.84 3.02071 1365.84 14.0664V135.884C1365.84 146.93 1374.79 155.884 1385.84 155.884H1512.97C1524.02 155.884 1532.97 146.93 1532.97 135.884V14.0664C1532.97 3.02071 1524.02 -5.93359 1512.97 -5.93359Z" fill="#14202E"/>
<path d="M1684.1 -5.93359H1556.97C1545.92 -5.93359 1536.97 3.02071 1536.97 14.0664V135.884C1536.97 146.93 1545.92 155.884 1556.97 155.884H1684.1C1695.15 155.884 1704.1 146.93 1704.1 135.884V14.0664C1704.1 3.02071 1695.15 -5.93359 1684.1 -5.93359Z" fill="#14202E"/>
<path d="M1855.23 -5.93359H1728.1C1717.05 -5.93359 1708.1 3.02071 1708.1 14.0664V135.884C1708.1 146.93 1717.05 155.884 1728.1 155.884H1855.23C1866.28 155.884 1875.23 146.93 1875.23 135.884V14.0664C1875.23 3.02071 1866.28 -5.93359 1855.23 -5.93359Z" fill="#14202E"/>
<path d="M2026.36 -5.93359H1899.23C1888.18 -5.93359 1879.23 3.02071 1879.23 14.0664V135.884C1879.23 146.93 1888.18 155.884 1899.23 155.884H2026.36C2037.41 155.884 2046.36 146.93 2046.36 135.884V14.0664C2046.36 3.02071 2037.41 -5.93359 2026.36 -5.93359Z" fill="#14202E"/>
<path d="M143.913 159.885H16.7812C5.73555 159.885 -3.21875 168.839 -3.21875 179.885V301.703C-3.21875 312.749 5.73555 321.703 16.7812 321.703H143.913C154.959 321.703 163.913 312.749 163.913 301.703V179.885C163.913 168.839 154.959 159.885 143.913 159.885Z" fill="#14202E"/>
<path d="M315.046 159.885H187.914C176.868 159.885 167.914 168.839 167.914 179.885V301.703C167.914 312.749 176.868 321.703 187.914 321.703H315.046C326.092 321.703 335.046 312.749 335.046 301.703V179.885C335.046 168.839 326.092 159.885 315.046 159.885Z" fill="#14202E"/>
<path d="M486.179 159.885H359.047C348.001 159.885 339.047 168.839 339.047 179.885V301.703C339.047 312.749 348.001 321.703 359.047 321.703H486.179C497.225 321.703 506.179 312.749 506.179 301.703V179.885C506.179 168.839 497.225 159.885 486.179 159.885Z" fill="#14202E"/>
<path d="M657.312 159.885H530.18C519.134 159.885 510.18 168.839 510.18 179.885V301.703C510.18 312.749 519.134 321.703 530.18 321.703H657.312C668.358 321.703 677.312 312.749 677.312 301.703V179.885C677.312 168.839 668.358 159.885 657.312 159.885Z" fill="#14202E"/>
<path d="M828.444 159.885H701.312C690.266 159.885 681.312 168.839 681.312 179.885V301.703C681.312 312.749 690.266 321.703 701.312 321.703H828.444C839.49 321.703 848.444 312.749 848.444 301.703V179.885C848.444 168.839 839.49 159.885 828.444 159.885Z" fill="#14202E"/>
<path d="M999.57 159.885H872.438C861.392 159.885 852.438 168.839 852.438 179.885V301.703C852.438 312.749 861.392 321.703 872.438 321.703H999.57C1010.62 321.703 1019.57 312.749 1019.57 301.703V179.885C1019.57 168.839 1010.62 159.885 999.57 159.885Z" fill="#14202E"/>
<path d="M1170.7 159.885H1043.57C1032.52 159.885 1023.57 168.839 1023.57 179.885V301.703C1023.57 312.749 1032.52 321.703 1043.57 321.703H1170.7C1181.75 321.703 1190.7 312.749 1190.7 301.703V179.885C1190.7 168.839 1181.75 159.885 1170.7 159.885Z" fill="#14202E"/>
<path d="M1341.83 159.885H1214.7C1203.65 159.885 1194.7 168.839 1194.7 179.885V301.703C1194.7 312.749 1203.65 321.703 1214.7 321.703H1341.83C1352.88 321.703 1361.83 312.749 1361.83 301.703V179.885C1361.83 168.839 1352.88 159.885 1341.83 159.885Z" fill="#14202E"/>
<path d="M1512.97 159.885H1385.84C1374.79 159.885 1365.84 168.839 1365.84 179.885V301.703C1365.84 312.749 1374.79 321.703 1385.84 321.703H1512.97C1524.02 321.703 1532.97 312.749 1532.97 301.703V179.885C1532.97 168.839 1524.02 159.885 1512.97 159.885Z" fill="#14202E"/>
<path d="M1684.1 159.885H1556.97C1545.92 159.885 1536.97 168.839 1536.97 179.885V301.703C1536.97 312.749 1545.92 321.703 1556.97 321.703H1684.1C1695.15 321.703 1704.1 312.749 1704.1 301.703V179.885C1704.1 168.839 1695.15 159.885 1684.1 159.885Z" fill="#14202E"/>
<path d="M1855.23 159.885H1728.1C1717.05 159.885 1708.1 168.839 1708.1 179.885V301.703C1708.1 312.749 1717.05 321.703 1728.1 321.703H1855.23C1866.28 321.703 1875.23 312.749 1875.23 301.703V179.885C1875.23 168.839 1866.28 159.885 1855.23 159.885Z" fill="#14202E"/>
<path d="M2026.36 159.885H1899.23C1888.18 159.885 1879.23 168.839 1879.23 179.885V301.703C1879.23 312.749 1888.18 321.703 1899.23 321.703H2026.36C2037.41 321.703 2046.36 312.749 2046.36 301.703V179.885C2046.36 168.839 2037.41 159.885 2026.36 159.885Z" fill="#14202E"/>
<path d="M143.913 325.703H16.7812C5.73555 325.703 -3.21875 334.657 -3.21875 345.703V467.521C-3.21875 478.567 5.73555 487.521 16.7812 487.521H143.913C154.959 487.521 163.913 478.567 163.913 467.521V345.703C163.913 334.657 154.959 325.703 143.913 325.703Z" fill="#14202E"/>
<path d="M315.046 325.703H187.914C176.868 325.703 167.914 334.657 167.914 345.703V467.521C167.914 478.567 176.868 487.521 187.914 487.521H315.046C326.092 487.521 335.046 478.567 335.046 467.521V345.703C335.046 334.657 326.092 325.703 315.046 325.703Z" fill="#14202E"/>
<path d="M486.179 325.703H359.047C348.001 325.703 339.047 334.657 339.047 345.703V467.521C339.047 478.567 348.001 487.521 359.047 487.521H486.179C497.225 487.521 506.179 478.567 506.179 467.521V345.703C506.179 334.657 497.225 325.703 486.179 325.703Z" fill="#14202E"/>
<path d="M657.312 325.703H530.18C519.134 325.703 510.18 334.657 510.18 345.703V467.521C510.18 478.567 519.134 487.521 530.18 487.521H657.312C668.358 487.521 677.312 478.567 677.312 467.521V345.703C677.312 334.657 668.358 325.703 657.312 325.703Z" fill="#14202E"/>
<path d="M828.444 325.703H701.312C690.266 325.703 681.312 334.657 681.312 345.703V467.521C681.312 478.567 690.266 487.521 701.312 487.521H828.444C839.49 487.521 848.444 478.567 848.444 467.521V345.703C848.444 334.657 839.49 325.703 828.444 325.703Z" fill="#14202E"/>
<path d="M999.57 325.703H872.438C861.392 325.703 852.438 334.657 852.438 345.703V467.521C852.438 478.567 861.392 487.521 872.438 487.521H999.57C1010.62 487.521 1019.57 478.567 1019.57 467.521V345.703C1019.57 334.657 1010.62 325.703 999.57 325.703Z" fill="#14202E"/>
<path d="M1170.7 325.703H1043.57C1032.52 325.703 1023.57 334.657 1023.57 345.703V467.521C1023.57 478.567 1032.52 487.521 1043.57 487.521H1170.7C1181.75 487.521 1190.7 478.567 1190.7 467.521V345.703C1190.7 334.657 1181.75 325.703 1170.7 325.703Z" fill="#14202E"/>
<path d="M1341.83 325.703H1214.7C1203.65 325.703 1194.7 334.657 1194.7 345.703V467.521C1194.7 478.567 1203.65 487.521 1214.7 487.521H1341.83C1352.88 487.521 1361.83 478.567 1361.83 467.521V345.703C1361.83 334.657 1352.88 325.703 1341.83 325.703Z" fill="#14202E"/>
<path d="M1512.97 325.703H1385.84C1374.79 325.703 1365.84 334.657 1365.84 345.703V467.521C1365.84 478.567 1374.79 487.521 1385.84 487.521H1512.97C1524.02 487.521 1532.97 478.567 1532.97 467.521V345.703C1532.97 334.657 1524.02 325.703 1512.97 325.703Z" fill="#14202E"/>
<path d="M1684.1 325.703H1556.97C1545.92 325.703 1536.97 334.657 1536.97 345.703V467.521C1536.97 478.567 1545.92 487.521 1556.97 487.521H1684.1C1695.15 487.521 1704.1 478.567 1704.1 467.521V345.703C1704.1 334.657 1695.15 325.703 1684.1 325.703Z" fill="#14202E"/>
<path d="M1855.23 325.703H1728.1C1717.05 325.703 1708.1 334.657 1708.1 345.703V467.521C1708.1 478.567 1717.05 487.521 1728.1 487.521H1855.23C1866.28 487.521 1875.23 478.567 1875.23 467.521V345.703C1875.23 334.657 1866.28 325.703 1855.23 325.703Z" fill="#14202E"/>
<path d="M2026.36 325.703H1899.23C1888.18 325.703 1879.23 334.657 1879.23 345.703V467.521C1879.23 478.567 1888.18 487.521 1899.23 487.521H2026.36C2037.41 487.521 2046.36 478.567 2046.36 467.521V345.703C2046.36 334.657 2037.41 325.703 2026.36 325.703Z" fill="#14202E"/>
<path d="M143.913 491.521H16.7812C5.73555 491.521 -3.21875 500.475 -3.21875 511.521V633.339C-3.21875 644.385 5.73555 653.339 16.7812 653.339H143.913C154.959 653.339 163.913 644.385 163.913 633.339V511.521C163.913 500.475 154.959 491.521 143.913 491.521Z" fill="#14202E"/>
<path d="M315.046 491.521H187.914C176.868 491.521 167.914 500.475 167.914 511.521V633.339C167.914 644.385 176.868 653.339 187.914 653.339H315.046C326.092 653.339 335.046 644.385 335.046 633.339V511.521C335.046 500.475 326.092 491.521 315.046 491.521Z" fill="#14202E"/>
<path d="M486.179 491.521H359.047C348.001 491.521 339.047 500.475 339.047 511.521V633.339C339.047 644.385 348.001 653.339 359.047 653.339H486.179C497.225 653.339 506.179 644.385 506.179 633.339V511.521C506.179 500.475 497.225 491.521 486.179 491.521Z" fill="#14202E"/>
<path d="M657.312 491.521H530.18C519.134 491.521 510.18 500.475 510.18 511.521V633.339C510.18 644.385 519.134 653.339 530.18 653.339H657.312C668.358 653.339 677.312 644.385 677.312 633.339V511.521C677.312 500.475 668.358 491.521 657.312 491.521Z" fill="#14202E"/>
<path d="M828.444 491.521H701.312C690.266 491.521 681.312 500.475 681.312 511.521V633.339C681.312 644.385 690.266 653.339 701.312 653.339H828.444C839.49 653.339 848.444 644.385 848.444 633.339V511.521C848.444 500.475 839.49 491.521 828.444 491.521Z" fill="#14202E"/>
<path d="M999.57 491.521H872.438C861.392 491.521 852.438 500.475 852.438 511.521V633.339C852.438 644.385 861.392 653.339 872.438 653.339H999.57C1010.62 653.339 1019.57 644.385 1019.57 633.339V511.521C1019.57 500.475 1010.62 491.521 999.57 491.521Z" fill="#14202E"/>
<path d="M1170.7 491.521H1043.57C1032.52 491.521 1023.57 500.475 1023.57 511.521V633.339C1023.57 644.385 1032.52 653.339 1043.57 653.339H1170.7C1181.75 653.339 1190.7 644.385 1190.7 633.339V511.521C1190.7 500.475 1181.75 491.521 1170.7 491.521Z" fill="#14202E"/>
<path d="M1341.83 491.521H1214.7C1203.65 491.521 1194.7 500.475 1194.7 511.521V633.339C1194.7 644.385 1203.65 653.339 1214.7 653.339H1341.83C1352.88 653.339 1361.83 644.385 1361.83 633.339V511.521C1361.83 500.475 1352.88 491.521 1341.83 491.521Z" fill="#14202E"/>
<path d="M1512.97 491.521H1385.84C1374.79 491.521 1365.84 500.475 1365.84 511.521V633.339C1365.84 644.385 1374.79 653.339 1385.84 653.339H1512.97C1524.02 653.339 1532.97 644.385 1532.97 633.339V511.521C1532.97 500.475 1524.02 491.521 1512.97 491.521Z" fill="#14202E"/>
<path d="M1684.1 491.521H1556.97C1545.92 491.521 1536.97 500.475 1536.97 511.521V633.339C1536.97 644.385 1545.92 653.339 1556.97 653.339H1684.1C1695.15 653.339 1704.1 644.385 1704.1 633.339V511.521C1704.1 500.475 1695.15 491.521 1684.1 491.521Z" fill="#14202E"/>
<path d="M1855.23 491.521H1728.1C1717.05 491.521 1708.1 500.475 1708.1 511.521V633.339C1708.1 644.385 1717.05 653.339 1728.1 653.339H1855.23C1866.28 653.339 1875.23 644.385 1875.23 633.339V511.521C1875.23 500.475 1866.28 491.521 1855.23 491.521Z" fill="#14202E"/>
<path d="M2026.36 491.521H1899.23C1888.18 491.521 1879.23 500.475 1879.23 511.521V633.339C1879.23 644.385 1888.18 653.339 1899.23 653.339H2026.36C2037.41 653.339 2046.36 644.385 2046.36 633.339V511.521C2046.36 500.475 2037.41 491.521 2026.36 491.521Z" fill="#14202E"/>
<path d="M143.913 657.34H16.7812C5.73555 657.34 -3.21875 666.294 -3.21875 677.34V799.158C-3.21875 810.204 5.73555 819.158 16.7812 819.158H143.913C154.959 819.158 163.913 810.204 163.913 799.158V677.34C163.913 666.294 154.959 657.34 143.913 657.34Z" fill="#14202E"/>
<path d="M315.046 657.34H187.914C176.868 657.34 167.914 666.294 167.914 677.34V799.158C167.914 810.204 176.868 819.158 187.914 819.158H315.046C326.092 819.158 335.046 810.204 335.046 799.158V677.34C335.046 666.294 326.092 657.34 315.046 657.34Z" fill="#14202E"/>
<path d="M486.179 657.34H359.047C348.001 657.34 339.047 666.294 339.047 677.34V799.158C339.047 810.204 348.001 819.158 359.047 819.158H486.179C497.225 819.158 506.179 810.204 506.179 799.158V677.34C506.179 666.294 497.225 657.34 486.179 657.34Z" fill="#14202E"/>
<path d="M657.312 657.34H530.18C519.134 657.34 510.18 666.294 510.18 677.34V799.158C510.18 810.204 519.134 819.158 530.18 819.158H657.312C668.358 819.158 677.312 810.204 677.312 799.158V677.34C677.312 666.294 668.358 657.34 657.312 657.34Z" fill="#14202E"/>
<path d="M828.444 657.34H701.312C690.266 657.34 681.312 666.294 681.312 677.34V799.158C681.312 810.204 690.266 819.158 701.312 819.158H828.444C839.49 819.158 848.444 810.204 848.444 799.158V677.34C848.444 666.294 839.49 657.34 828.444 657.34Z" fill="#14202E"/>
<path d="M999.57 657.34H872.438C861.392 657.34 852.438 666.294 852.438 677.34V799.158C852.438 810.204 861.392 819.158 872.438 819.158H999.57C1010.62 819.158 1019.57 810.204 1019.57 799.158V677.34C1019.57 666.294 1010.62 657.34 999.57 657.34Z" fill="#14202E"/>
<path d="M1170.7 657.34H1043.57C1032.52 657.34 1023.57 666.294 1023.57 677.34V799.158C1023.57 810.204 1032.52 819.158 1043.57 819.158H1170.7C1181.75 819.158 1190.7 810.204 1190.7 799.158V677.34C1190.7 666.294 1181.75 657.34 1170.7 657.34Z" fill="#14202E"/>
<path d="M1341.83 657.34H1214.7C1203.65 657.34 1194.7 666.294 1194.7 677.34V799.158C1194.7 810.204 1203.65 819.158 1214.7 819.158H1341.83C1352.88 819.158 1361.83 810.204 1361.83 799.158V677.34C1361.83 666.294 1352.88 657.34 1341.83 657.34Z" fill="#14202E"/>
<path d="M1512.97 657.34H1385.84C1374.79 657.34 1365.84 666.294 1365.84 677.34V799.158C1365.84 810.204 1374.79 819.158 1385.84 819.158H1512.97C1524.02 819.158 1532.97 810.204 1532.97 799.158V677.34C1532.97 666.294 1524.02 657.34 1512.97 657.34Z" fill="#14202E"/>
<path d="M1684.1 657.34H1556.97C1545.92 657.34 1536.97 666.294 1536.97 677.34V799.158C1536.97 810.204 1545.92 819.158 1556.97 819.158H1684.1C1695.15 819.158 1704.1 810.204 1704.1 799.158V677.34C1704.1 666.294 1695.15 657.34 1684.1 657.34Z" fill="#14202E"/>
<path d="M1855.23 657.34H1728.1C1717.05 657.34 1708.1 666.294 1708.1 677.34V799.158C1708.1 810.204 1717.05 819.158 1728.1 819.158H1855.23C1866.28 819.158 1875.23 810.204 1875.23 799.158V677.34C1875.23 666.294 1866.28 657.34 1855.23 657.34Z" fill="#14202E"/>
<path d="M2026.36 657.34H1899.23C1888.18 657.34 1879.23 666.294 1879.23 677.34V799.158C1879.23 810.204 1888.18 819.158 1899.23 819.158H2026.36C2037.41 819.158 2046.36 810.204 2046.36 799.158V677.34C2046.36 666.294 2037.41 657.34 2026.36 657.34Z" fill="#14202E"/>
<path d="M143.913 823.158H16.7812C5.73555 823.158 -3.21875 832.112 -3.21875 843.158V964.976C-3.21875 976.022 5.73555 984.976 16.7812 984.976H143.913C154.959 984.976 163.913 976.022 163.913 964.976V843.158C163.913 832.112 154.959 823.158 143.913 823.158Z" fill="#14202E"/>
<path d="M315.046 823.158H187.914C176.868 823.158 167.914 832.112 167.914 843.158V964.976C167.914 976.022 176.868 984.976 187.914 984.976H315.046C326.092 984.976 335.046 976.022 335.046 964.976V843.158C335.046 832.112 326.092 823.158 315.046 823.158Z" fill="#14202E"/>
<path d="M486.179 823.158H359.047C348.001 823.158 339.047 832.112 339.047 843.158V964.976C339.047 976.022 348.001 984.976 359.047 984.976H486.179C497.225 984.976 506.179 976.022 506.179 964.976V843.158C506.179 832.112 497.225 823.158 486.179 823.158Z" fill="#14202E"/>
<path d="M657.312 823.158H530.18C519.134 823.158 510.18 832.112 510.18 843.158V964.976C510.18 976.022 519.134 984.976 530.18 984.976H657.312C668.358 984.976 677.312 976.022 677.312 964.976V843.158C677.312 832.112 668.358 823.158 657.312 823.158Z" fill="#14202E"/>
<path d="M828.444 823.158H701.312C690.266 823.158 681.312 832.112 681.312 843.158V964.976C681.312 976.022 690.266 984.976 701.312 984.976H828.444C839.49 984.976 848.444 976.022 848.444 964.976V843.158C848.444 832.112 839.49 823.158 828.444 823.158Z" fill="#14202E"/>
<path d="M999.57 823.158H872.438C861.392 823.158 852.438 832.112 852.438 843.158V964.976C852.438 976.022 861.392 984.976 872.438 984.976H999.57C1010.62 984.976 1019.57 976.022 1019.57 964.976V843.158C1019.57 832.112 1010.62 823.158 999.57 823.158Z" fill="#14202E"/>
<path d="M1170.7 823.158H1043.57C1032.52 823.158 1023.57 832.112 1023.57 843.158V964.976C1023.57 976.022 1032.52 984.976 1043.57 984.976H1170.7C1181.75 984.976 1190.7 976.022 1190.7 964.976V843.158C1190.7 832.112 1181.75 823.158 1170.7 823.158Z" fill="#14202E"/>
<path d="M1341.83 823.158H1214.7C1203.65 823.158 1194.7 832.112 1194.7 843.158V964.976C1194.7 976.022 1203.65 984.976 1214.7 984.976H1341.83C1352.88 984.976 1361.83 976.022 1361.83 964.976V843.158C1361.83 832.112 1352.88 823.158 1341.83 823.158Z" fill="#14202E"/>
<path d="M1512.97 823.158H1385.84C1374.79 823.158 1365.84 832.112 1365.84 843.158V964.976C1365.84 976.022 1374.79 984.976 1385.84 984.976H1512.97C1524.02 984.976 1532.97 976.022 1532.97 964.976V843.158C1532.97 832.112 1524.02 823.158 1512.97 823.158Z" fill="#14202E"/>
<path d="M1684.1 823.158H1556.97C1545.92 823.158 1536.97 832.112 1536.97 843.158V964.976C1536.97 976.022 1545.92 984.976 1556.97 984.976H1684.1C1695.15 984.976 1704.1 976.022 1704.1 964.976V843.158C1704.1 832.112 1695.15 823.158 1684.1 823.158Z" fill="#14202E"/>
<path d="M1855.23 823.158H1728.1C1717.05 823.158 1708.1 832.112 1708.1 843.158V964.976C1708.1 976.022 1717.05 984.976 1728.1 984.976H1855.23C1866.28 984.976 1875.23 976.022 1875.23 964.976V843.158C1875.23 832.112 1866.28 823.158 1855.23 823.158Z" fill="#14202E"/>
<path d="M2026.36 823.158H1899.23C1888.18 823.158 1879.23 832.112 1879.23 843.158V964.976C1879.23 976.022 1888.18 984.976 1899.23 984.976H2026.36C2037.41 984.976 2046.36 976.022 2046.36 964.976V843.158C2046.36 832.112 2037.41 823.158 2026.36 823.158Z" fill="#14202E"/>
</g>
</g>
</g>
<defs>
<clipPath id="clip0_2315_4">
<rect width="1920" height="961" fill="white"/>
</clipPath>
</defs>
</svg>
